<svg xmlns="http://www.w3.org/2000/svg" viewBox="0 0 32 32">
  <rect width="32" height="32" rx="6" fill="#14100b"/>
  <path d="M7 21 L7 12.5 L11.2 16 L16 9 L20.8 16 L25 12.5 L25 21 Z" fill="#c9a227"/>
  <path d="M16 3.2 C15 6 13.4 7.2 13.4 9.6 a2.6 2.6 0 0 0 5.2 0 c0-1.5-.8-2.3-1.3-3.3 -.3.6-.7.9-1.1 1.1 .3-1.4.3-2.6-.2-4.2Z" fill="#e8842c"/>
  <circle cx="16" cy="18.2" r="1.7" fill="#8a2f26"/>
  <rect x="7" y="22.6" width="18" height="2.2" rx="1.1" fill="#8a7020"/>
  <rect x="5.4" y="26.4" width="21.2" height="1.6" rx="0.8" fill="#c9a227" opacity="0.6"/>
</svg>
